<svg xmlns="http://www.w3.org/2000/svg" width="20" height="20" viewBox="0 0 20 20">
  <defs>
    <style>
      .cls-1 {
        fill: #1e1e1e;
        fill-rule: evenodd;
      }
    </style>
  </defs>
  <path id="fb" class="cls-1" d="M828.222,1852H813.778a2.786,2.786,0,0,0-2.778,2.78v14.44a2.786,2.786,0,0,0,2.778,2.78h14.444a2.786,2.786,0,0,0,2.778-2.78v-14.44A2.786,2.786,0,0,0,828.222,1852Zm-5.011,8.31-0.116,1.49h-1.533v5.2h-1.938v-5.2H818.59v-1.49h1.034v-1.01a2.7,2.7,0,0,1,.333-1.55,1.833,1.833,0,0,1,1.605-.75,6.7,6.7,0,0,1,1.853.18l-0.258,1.54a3.36,3.36,0,0,0-.833-0.13,0.629,0.629,0,0,0-.762.55v1.17h1.649Z" transform="translate(-811 -1852)"/>
</svg>
