<svg xmlns="http://www.w3.org/2000/svg" width="20" height="20" viewBox="0 0 20 20">
  <defs>
    <style>
      .cls-1 {
        fill: #1e1e1e;
        fill-rule: evenodd;
      }
    </style>
  </defs>
  <path id="insta" class="cls-1" d="M908.222,1852H893.778a2.786,2.786,0,0,0-2.778,2.78v14.44a2.786,2.786,0,0,0,2.778,2.78h14.444a2.786,2.786,0,0,0,2.778-2.78v-14.44A2.786,2.786,0,0,0,908.222,1852ZM906,1860.97v4.1a1.936,1.936,0,0,1-1.933,1.93h-6.134a1.936,1.936,0,0,1-1.933-1.93v-6.14a1.936,1.936,0,0,1,1.933-1.93h6.134a1.936,1.936,0,0,1,1.933,1.93v2.04Zm-2.266,1.03a2.734,2.734,0,1,1-5.267-1.03h-1.493v4.1a0.96,0.96,0,0,0,.959.96h6.134a0.96,0.96,0,0,0,.959-0.96v-4.1h-1.493A2.779,2.779,0,0,1,903.734,1862Zm1.109-2.15v-1.7h-0.221l-1.475.01,0.006,1.69h1.69ZM901,1863.76a1.76,1.76,0,1,0-1.76-1.76A1.763,1.763,0,0,0,901,1863.76Z" transform="translate(-891 -1852)"/>
</svg>
