<svg xmlns="http://www.w3.org/2000/svg" width="94.094" height="22.531" viewBox="0 0 94.094 22.531">
  <defs>
    <style>
      .cls-1 {
        fill: #fff394;
        fill-rule: evenodd;
      }
    </style>
  </defs>
  <path id="logo" class="cls-1" d="M50.26,17.908q3.891,0,3.892,5.16a6.428,6.428,0,0,1-.973,3.82,3.346,3.346,0,0,1-2.894,1.34h-3.03v7.665H46V17.908H50.26Zm-3.005,9.229h2.98a2.262,2.262,0,0,0,2.044-.98,5.784,5.784,0,0,0,.641-3.089,5.577,5.577,0,0,0-.641-3.051,2.294,2.294,0,0,0-2.044-.943h-2.98v8.062Zm18.423-9.229v1.166H59.5V26h5.1v1.091H59.5v7.641h6.576v1.166H58.24V17.908h7.438Zm13.127,0.918H78.362a1.415,1.415,0,0,0-1.01.347,2.817,2.817,0,0,0-.641,1.042l-1.8,4.738a2.618,2.618,0,0,1-1.305,1.538v0.05a2.289,2.289,0,0,1,1.453,1.439l2.168,5.607a2.525,2.525,0,0,0,.7,1.091,1.554,1.554,0,0,0,1,.323h0.419v0.893a2.514,2.514,0,0,1-.813.1,2.245,2.245,0,0,1-1.5-.521,3.387,3.387,0,0,1-.96-1.463l-2.217-5.731a1.616,1.616,0,0,0-1.749-1.191H71.293v8.807H70.062V17.908h1.232v8.137h0.788a1.6,1.6,0,0,0,.972-0.3,2.482,2.482,0,0,0,.727-1.116l1.872-4.912a2.551,2.551,0,0,1,2.463-1.885,3.031,3.031,0,0,1,.382.024c0.123,0.017.225,0.034,0.308,0.05v0.918Zm16.01-.918L98.83,28.6h0.049l3.226-10.692h1.355L98.707,33.017a4.395,4.395,0,0,1-1.38,2.207,3.352,3.352,0,0,1-2.142.72l-0.1-1.017a3.266,3.266,0,0,0,1.49-.57A2.989,2.989,0,0,0,97.6,32.62l0.665-2.481-4.877-12.23h1.428Zm19.187,0v1.166h-3.645V35.894h-1.232V19.075H105.48V17.908H114ZM34.087,22.15A7.087,7.087,0,1,1,27,15.013,7.112,7.112,0,0,1,34.087,22.15Zm-0.8,8.512L27.229,33.35a0.565,0.565,0,0,1-.457,0L20.71,30.662a0.568,0.568,0,0,0-.8.523v5.774a0.568,0.568,0,0,0,.8.523l6.062-2.688a0.563,0.563,0,0,1,.457,0l6.062,2.688a0.568,0.568,0,0,0,.8-0.523V31.185A0.568,0.568,0,0,0,33.291,30.662Zm53.4-12.754q3.891,0,3.892,5.16a6.428,6.428,0,0,1-.973,3.82,3.346,3.346,0,0,1-2.894,1.34H83.683v7.665H82.427V17.908h4.261Zm-3,9.229h2.98a2.262,2.262,0,0,0,2.044-.98,5.784,5.784,0,0,0,.641-3.089,5.577,5.577,0,0,0-.641-3.051,2.294,2.294,0,0,0-2.044-.943h-2.98v8.062Z" transform="translate(-19.906 -15)"/>
</svg>
