<?xml version="1.0" encoding="utf-8"?>
<!-- Generator: Adobe Illustrator 19.2.1, SVG Export Plug-In . SVG Version: 6.00 Build 0)  -->
<svg version="1.1" id="Layer_1" xmlns="http://www.w3.org/2000/svg" xmlns:xlink="http://www.w3.org/1999/xlink" x="0px" y="0px"
	 viewBox="0 0 14.2 22.5" style="enable-background:new 0 0 14.2 22.5;" xml:space="preserve">
<style type="text/css">
	.st0{fill:#FFF394;}
</style>
<path id="logo" class="st0" d="M14.2,7.1c0,3.9-3.2,7.1-7.1,7S0,11,0,7c0-3.9,3.2-7,7.1-7C11,0,14.2,3.2,14.2,7.1
	C14.2,7.1,14.2,7.1,14.2,7.1z M13.4,15.7l-6.1,2.7c-0.1,0.1-0.3,0.1-0.5,0l-6.1-2.7c-0.3-0.1-0.6,0-0.8,0.3C0,16,0,16.1,0,16.2V22
	c0,0.3,0.2,0.6,0.6,0.6c0.1,0,0.2,0,0.2,0l6.1-2.7c0.1-0.1,0.3-0.1,0.5,0l6.1,2.7c0.3,0.1,0.6,0,0.8-0.3c0-0.1,0.1-0.2,0-0.2v-5.8
	c0-0.3-0.2-0.6-0.6-0.6C13.5,15.6,13.5,15.6,13.4,15.7L13.4,15.7z"/>
</svg>
