<?xml version="1.0" encoding="utf-8"?>
<!-- Generator: Adobe Illustrator 19.2.1, SVG Export Plug-In . SVG Version: 6.00 Build 0)  -->
<svg version="1.1" id="Layer_1" xmlns="http://www.w3.org/2000/svg" xmlns:xlink="http://www.w3.org/1999/xlink" x="0px" y="0px"
	 viewBox="0 0 94.1 22.5" style="enable-background:new 0 0 94.1 22.5;" xml:space="preserve">
<style type="text/css">
	.st0{fill:#FFF394;}
</style>
<g id="rekrutsvg">
	<path class="logosvg" d="M30.4,2.8h-4.3v18h1.3v-7.7h3c1.1,0.1,2.2-0.4,2.9-1.3c0.7-1.1,1.1-2.5,1-3.8C34.2,4.5,32.9,2.8,30.4,2.8z
		 M32.4,11.1c-0.4,0.7-1.2,1.1-2,1h-3V4h3c0.8-0.1,1.6,0.3,2,0.9C32.8,5.6,33,6.4,33,7.2c0,0.3,0,0.5,0,0.8
		C33.1,9.1,32.9,10.1,32.4,11.1z"/>
	<polygon class="st0" points="39.6,12 44.7,12 44.7,10.9 39.6,10.9 39.6,4 45.8,4 45.8,2.8 38.3,2.8 38.3,20.8 46.2,20.8 46.2,19.6
		39.6,19.6 	"/>
	<path class="st0" d="M58,19.6c-0.3-0.3-0.6-0.7-0.7-1.1l-2.2-5.6c-0.2-0.7-0.8-1.2-1.5-1.4l0,0c0.6-0.3,1.1-0.9,1.3-1.5l1.8-4.7
		c0.1-0.4,0.4-0.7,0.6-1c0.3-0.2,0.6-0.4,1-0.3h0.4l0,0V2.8c-0.1,0-0.2,0-0.3,0s-0.3,0-0.4,0c-1.2,0-2.2,0.8-2.5,1.9l-1.9,4.9
		c-0.1,0.4-0.4,0.8-0.7,1.1c-0.3,0.2-0.6,0.3-1,0.3h-0.8V2.8h-1.2v18h1.2V12h0.8c0.8-0.1,1.5,0.4,1.7,1.2l2.2,5.7
		c0.2,0.6,0.5,1.1,1,1.5c0.4,0.4,1,0.5,1.5,0.5c0.3,0,0.5,0,0.8-0.1v-0.9H59C58.7,19.9,58.3,19.8,58,19.6z"/>
	<path class="st0" d="M79,13.5L79,13.5L74.9,2.8h-1.4L78.4,15l-0.7,2.5c-0.1,0.7-0.5,1.3-1,1.7c-0.4,0.3-1,0.5-1.5,0.6l0.1,1
		c0.8,0,1.5-0.2,2.1-0.7c0.7-0.6,1.2-1.3,1.4-2.2l4.8-15.1h-1.4L79,13.5z"/>
	<polygon class="st0" points="94.1,2.8 85.6,2.8 85.6,4 89.2,4 89.2,20.8 90.4,20.8 90.4,4 94.1,4 	"/>
	<path class="st0" d="M66.8,2.8h-4.3v18h1.3v-7.7h3c1.1,0.1,2.2-0.4,2.9-1.3c0.7-1.1,1.1-2.5,1-3.8C70.7,4.5,69.4,2.8,66.8,2.8z
		 M68.8,11.1c-0.4,0.7-1.2,1.1-2,1h-3V4h3c0.8-0.1,1.6,0.3,2,0.9c0.4,0.7,0.6,1.5,0.6,2.3c0,0.3,0,0.5,0,0.8
		C69.5,9.1,69.3,10.1,68.8,11.1z"/>
</g>
<path id="iconsvg" class="logosvg" d="M14.2,7.1c0,3.9-3.2,7.1-7.1,7S0.1,10.9,0.1,7c0-3.9,3.2-7,7.1-7S14.2,3.2,14.2,7.1L14.2,7.1z
	 M13.4,15.6l-6.1,2.7c-0.1,0.1-0.3,0.1-0.5,0l-6.1-2.7c-0.3-0.1-0.6,0-0.8,0.3c0.1,0,0.1,0.1,0.1,0.2v5.8c0,0.3,0.2,0.6,0.6,0.6
	c0.1,0,0.2,0,0.2,0L7,19.8c0.1-0.1,0.3-0.1,0.5,0l6.1,2.7c0.3,0.1,0.6,0,0.8-0.3c0-0.1,0.1-0.2,0-0.2v-5.8c0-0.3-0.2-0.6-0.6-0.6
	C13.5,15.5,13.5,15.5,13.4,15.6L13.4,15.6z"/>
</svg>
