<svg xmlns="http://www.w3.org/2000/svg" width="20" height="20" viewBox="0 0 20 20">
  <defs>
    <style>
      .cls-1 {
        fill: #1e1e1e;
        fill-rule: evenodd;
      }
    </style>
  </defs>
  <path id="tw" class="cls-1" d="M868.222,1852H853.778a2.786,2.786,0,0,0-2.778,2.78v14.44a2.786,2.786,0,0,0,2.778,2.78h14.444a2.786,2.786,0,0,0,2.778-2.78v-14.44A2.786,2.786,0,0,0,868.222,1852Zm-3.239,7.96c0,0.08.006,0.17,0.006,0.26a5.849,5.849,0,0,1-9,4.93,3.983,3.983,0,0,0,.491.03,4.131,4.131,0,0,0,2.552-.88,2.061,2.061,0,0,1-1.92-1.43,2.451,2.451,0,0,0,.387.04,1.946,1.946,0,0,0,.542-0.08,2.056,2.056,0,0,1-1.649-2.01v-0.03a1.969,1.969,0,0,0,.931.26,2.066,2.066,0,0,1-.636-2.75,5.8,5.8,0,0,0,4.236,2.15,1.968,1.968,0,0,1-.053-0.47,2.055,2.055,0,0,1,3.554-1.4,4.2,4.2,0,0,0,1.306-.5,2.083,2.083,0,0,1-.9,1.14,3.933,3.933,0,0,0,1.181-.33A4.225,4.225,0,0,1,864.983,1859.96Z" transform="translate(-851 -1852)"/>
</svg>
